<svg id="SvgjsSvg1038" width="360" height="275" xmlns="http://www.w3.org/2000/svg" version="1.1" xmlns:xlink="http://www.w3.org/1999/xlink" xmlns:svgjs="http://svgjs.com/svgjs"><defs id="SvgjsDefs1039"><svg width="104px" height="104px" xmlns="http://www.w3.org/2000/svg" xmlns:xlink="http://www.w3.org/1999/xlink" version="1.1" x="0px" y="0px" viewBox="0 0 100 100" enable-background="new 0 0 100 100" id="a1493677914134"><path d="M40.622,52H66.51c0.965,6.36,6.427,11.253,13.021,11.253c7.271,0,13.187-5.945,13.187-13.253S86.802,36.747,79.53,36.747  c-6.593,0-12.056,4.893-13.021,11.253H40.549c-0.229-1.679-0.702-3.315-1.416-4.853l24.682-14.33  c2.481,3.104,6.269,4.971,10.297,4.971c2.304,0,4.581-0.615,6.585-1.779c6.291-3.653,8.454-11.771,4.823-18.096  C83.172,9.822,78.79,7.28,74.085,7.28c-2.305,0-4.582,0.615-6.586,1.779c-5.707,3.313-8.002,10.296-5.671,16.287l-24.803,14.4  c-1.259-1.579-2.81-2.962-4.656-4.033c-2.541-1.476-5.429-2.256-8.35-2.256c-5.966,0-11.522,3.223-14.501,8.412  c-4.607,8.023-1.863,18.32,6.116,22.954c2.542,1.476,5.429,2.256,8.35,2.256c5.258,0,10.197-2.507,13.335-6.654l24.509,14.229  c-2.33,5.991-0.036,12.974,5.671,16.287c2.004,1.164,4.281,1.779,6.585,1.779c0.001,0,0.001,0,0.001,0  c4.704,0,9.087-2.542,11.436-6.634c3.632-6.326,1.468-14.443-4.823-18.096c-2.004-1.164-4.282-1.779-6.586-1.779  c-4.028,0-7.815,1.868-10.297,4.971L39.33,56.967C40.029,55.357,40.45,53.683,40.622,52z M79.53,40.747  c5.065,0,9.187,4.151,9.187,9.253s-4.121,9.253-9.187,9.253c-5.066,0-9.188-4.151-9.188-9.253S74.464,40.747,79.53,40.747z   M69.507,12.518c1.396-0.81,2.979-1.238,4.578-1.238c3.276,0,6.329,1.772,7.967,4.625C84.59,20.327,83.082,26,78.69,28.551  c-1.396,0.81-2.979,1.238-4.577,1.238c-3.277,0-6.33-1.772-7.968-4.625C63.606,20.741,65.113,15.069,69.507,12.518z M35.018,56.675  c-2.268,3.95-6.495,6.404-11.033,6.404c-2.216,0-4.409-0.593-6.342-1.715c-6.081-3.531-8.169-11.383-4.655-17.503  c2.268-3.95,6.495-6.404,11.032-6.404c2.216,0,4.409,0.593,6.342,1.715C36.443,42.702,38.531,50.554,35.018,56.675z M74.111,70.211  c1.6,0,3.183,0.428,4.578,1.238c4.393,2.55,5.9,8.223,3.362,12.646c-1.638,2.853-4.69,4.625-7.967,4.625  c-1.6,0-3.183-0.428-4.578-1.238c-4.393-2.551-5.901-8.224-3.362-12.646C67.782,71.984,70.835,70.211,74.111,70.211z"></path></svg><!--?xml version="1.0"?-->
<svg width="708.28571428571px" height="271.42857142857px" id="t1493677914134"><path fill="#468966" d="M33.785714285714,49.642857142857l-11.071428571429-2.0714285714286c-0.071428571428571-0.35714285714286-0.071428571428571-0.71428571428571-0.071428571428571-1.0714285714286c0-5.2857142857143,5.1428571428571-9.4285714285714,15.357142857143-9.4285714285714s14,4.2142857142857,14,13.428571428571l0,7.8571428571428c0,3.0714285714286,0.071428571428571,4.8571428571428,2.3571428571428,4.8571428571428c0.42857142857143,0,0.92857142857142-0.071428571428571,1.5714285714286-0.21428571428571l-2,8.7857142857142c-1.2142857142857,0.21428571428571-2.2857142857143,0.28571428571428-3.2142857142857,0.28571428571428c-5.2857142857143,0-7.5714285714285-2.5-8.3571428571428-4.6428571428571c-1.7142857142857,2.4285714285714-4.2857142857143,5-9.4999999999999,5c-6.0714285714285,0-11.285714285714-3.4285714285714-11.285714285714-9.7857142857142c0-7.7142857142857,7.6428571428571-11.214285714286,19.285714285714-11.285714285714l0-0.99999999999999c0-3.7857142857143-0.92857142857142-5.1428571428571-3.6428571428571-5.1428571428571c-2.2857142857143,0-3.5,0.92857142857142-3.5,3.4285714285714c0,0.28571428571428,0,0.64285714285714,0.071428571428571,0.99999999999999z M40.857142857143,60.285714285714l0-2.6428571428571c-4.3571428571428,0.071428571428571-8.0714285714285,0.85714285714285-8.0714285714285,4.1428571428571c0,1.8571428571428,1.2142857142857,2.7142857142857,3.0714285714286,2.7142857142857c2.1428571428571,0,4.7142857142857-1.1428571428571,5-4.2142857142857z M58.714285714285,87.714285714285l0-8.0714285714285l3.7857142857143,0l0-33.5l-4.8571428571428,0l0-8.0714285714285l15.214285714286,0l0,4.2142857142857c0.21428571428571-0.71428571428571,2.2142857142857-5.2142857142857,9.5714285714285-5.2142857142857c10.714285714286,0,14.214285714286,9.0714285714285,14.214285714286,17.142857142857c0,10.285714285714-5.5714285714285,18.214285714286-14.857142857143,18.214285714286c-5.5,0-7.9285714285714-3.1428571428571-8.1428571428571-3.4285714285714l0,10.642857142857l3.7857142857143,0l0,8.0714285714285l-18.714285714286,0z M79.357142857142,64.142857142857c2.2857142857143,0,5.7142857142857-0.92857142857142,5.7142857142857-9.5714285714285c0-6.8571428571428-2.1428571428571-9.2142857142857-5.5714285714285-9.2142857142857c-3.7857142857143,0-5.8571428571428,2.8571428571428-5.8571428571428,9.6428571428571c0,6.0714285714285,1.6428571428571,9.1428571428571,5.7142857142857,9.1428571428571z M101.14285714286,71.428571428571l0-8.0714285714285l3.7857142857143,0l0-17.214285714286l-4.8571428571428,0l0-8.0714285714285l16,0l0,25.285714285714l3.7857142857143,0l0,8.0714285714285l-18.714285714286,0z M103.07142857143,26.428571428571c0-3.6428571428571,3-6.5714285714285,6.6428571428571-6.5714285714285c3.7142857142857,0,6.6428571428571,2.9285714285714,6.6428571428571,6.5714285714285s-2.9285714285714,6.6428571428571-6.6428571428571,6.6428571428571c-3.6428571428571,0-6.6428571428571-3-6.6428571428571-6.6428571428571z M125.14285714286,71.428571428571l0-43.214285714285l-4.5,0l0-8.0714285714285l15.642857142857,0l0,20.857142857143c0.21428571428571-0.57142857142857,2.6428571428571-3.9285714285714,8.7142857142857-3.9285714285714c9.4285714285714,0,13.928571428571,8.2142857142857,13.928571428571,17.142857142857c0,10.071428571429-5.3571428571428,18.214285714286-14.857142857143,18.214285714286c-5.1428571428571,0-7.9285714285714-2.2857142857143-9.6428571428571-5.4285714285714l-0.28571428571428,4.4285714285714l-8.9999999999999,0z M141.64285714286,64.142857142857c3.2142857142857,0,5.7142857142857-3.0714285714286,5.7142857142857-9.6428571428571c0-5.0714285714285-1.5-9.1428571428571-5.5-9.1428571428571s-5.6428571428571,4.0714285714285-5.6428571428571,9.2857142857142c0,4.5714285714285,1.2857142857143,9.4999999999999,5.4285714285714,9.4999999999999z M180.21428571428,72.428571428571c-13.5,0-17.571428571428-8.3571428571428-17.571428571428-17.928571428571c0-9.3571428571428,3.8571428571428-17.428571428571,17.357142857143-17.428571428571c13.785714285714,0,17.428571428571,8.3571428571428,17.428571428571,17.571428571428c0,9.7857142857142-4.0714285714285,17.785714285714-17.214285714286,17.785714285714z M180.07142857143,64.142857142857c4.8571428571428,0,5.7857142857143-4.5,5.7857142857143-9.3571428571428s-0.92857142857142-9.4285714285714-5.8571428571428-9.4285714285714c-4.8571428571428,0-5.7857142857143,4.5714285714285-5.7857142857143,9.2857142857142c0,4.7857142857143,0.92857142857142,9.4999999999999,5.8571428571428,9.4999999999999z M204.78571428571,60.571428571428l0-14.428571428571l-4.8571428571428,0l0-8.0714285714285l5,0l0.64285714285714-9.1428571428571l10.357142857143,0l0,9.1428571428571l9.1428571428571,0l0,8.0714285714285l-9.1428571428571,0l0,14.428571428571c0,1.6428571428571,0.5,2.6428571428571,1.9285714285714,2.6428571428571c1.7857142857143,0,2.1428571428571-2,2.2857142857143-4l8.1428571428571,2.8571428571428c-1.4285714285714,5.6428571428571-3.6428571428571,10.071428571429-11.785714285714,10.071428571429c-8.8571428571428,0-11.714285714286-5.6428571428571-11.714285714286-11.571428571429z"></path></svg>
<!--?xml version="1.0"?-->
<svg width="106.15625px" height="27px" id="s1493677914134"><path fill="#468966" d="M6.2616666666668,13.175q0-0.89250000000002-0.66583333333335-1.50875t-1.615-0.61625000000001q-0.92083333333336,0-1.5866666666667,0.61625000000001t-0.77916666666668,1.50875l4.6466666666668,0z M4.0375000000001,10.285q1.36,0,2.2100000000001,0.87833333333335t0.86416666666669,2.2666666666667l0,0.51000000000001l-5.4966666666668,0q0.056666666666668,1.105,0.72958333333335,1.7779166666667t1.7495833333334,0.68708333333335q0.66583333333335,0,1.2679166666667-0.31875000000001t0.92791666666669-0.84291666666669l0.62333333333335,0.52416666666668q-0.92083333333336,1.4025-2.8333333333334,1.4025q-1.5016666666667-0.014166666666667-2.4012500000001-0.97750000000002t-0.91375000000002-2.4791666666667q0-1.4733333333334,0.92791666666669-2.4437500000001t2.3445833333334-0.98458333333336z M9.0595833333336,15.186666666667q0,0.53833333333335,0.43208333333334,0.87833333333335t1.0695833333334,0.34000000000001q1.1475,0,1.7070833333334-0.60208333333335t0.55958333333335-1.63625l0-0.45333333333334l-1.02,0q-1.3033333333334,0-2.0258333333334,0.39666666666668t-0.72250000000002,1.0766666666667z M10.98625,10.285q1.3175,0,1.955,0.60916666666668t0.65166666666668,1.7l0,1.9408333333334q0,1.5866666666667,0.1275,2.4650000000001l-0.79333333333335,0q-0.085000000000002-0.43916666666668-0.085000000000002-1.0625l-0.028333333333334,0q-0.70833333333335,1.2325-2.2808333333334,1.2325q-1.0625,0-1.6858333333334-0.52416666666668t-0.63750000000002-1.4166666666667q0-1.0908333333334,0.94208333333336-1.6433333333334t2.6279166666667-0.55250000000001l1.0483333333334,0l0-0.38250000000001q0-0.80750000000002-0.49583333333335-1.2041666666667t-1.3458333333334-0.39666666666668q-1.1333333333334,0-1.9975,0.73666666666668l-0.49583333333335-0.58083333333335q0.46750000000001-0.45333333333334,1.1545833333334-0.68708333333335t1.33875-0.23375000000001z M17.141666666667,10.285q1.6575,0,2.2950000000001,1.2325l-0.76500000000002,0.45333333333334q-0.48166666666668-0.92083333333336-1.53-0.92083333333336q-0.56666666666668,0-0.98458333333336,0.30458333333334t-0.41791666666668,0.74375000000002t0.35416666666668,0.70125000000002t1.2325,0.41791666666668q1.3033333333334,0.22666666666667,1.7991666666667,0.67291666666668t0.49583333333335,1.25375q0,0.92083333333336-0.65875000000002,1.4733333333334t-1.72125,0.55250000000001q-1.87-0.014166666666667-2.6208333333334-1.3316666666667l0.75083333333335-0.51000000000001q0.24083333333334,0.49583333333335,0.78625000000002,0.78625000000002t1.1120833333334,0.29041666666667q0.65166666666668,0,1.0766666666667-0.36125000000001t0.42500000000001-0.84291666666669q0-0.43916666666668-0.34708333333334-0.72250000000002t-1.50875-0.51000000000001q-1.0058333333334-0.19833333333334-1.5158333333334-0.60916666666668t-0.51000000000001-1.19q0-0.83583333333335,0.63750000000002-1.36t1.615-0.52416666666668z M20.917083333334,10.455l2.1675000000001,5.5108333333335l2.1108333333334-5.5108333333335l0.90666666666669,0l-3.3575000000001,8.5425000000002q-0.55250000000001,1.4025-1.8133333333334,1.4025q-0.39666666666668,0-0.83583333333335-0.1275l0.085000000000002-0.79333333333335q0.46750000000001,0.15583333333334,0.76500000000002,0.15583333333334q0.32583333333334,0,0.58083333333335-0.22666666666667t0.49583333333335-0.82166666666669l0.60916666666668-1.5583333333334l-2.6633333333334-6.5733333333335l0.94916666666669,0z  M30.677916666667,15.186666666667q0,0.53833333333335,0.43208333333334,0.87833333333335t1.0695833333334,0.34000000000001q1.1475,0,1.7070833333334-0.60208333333335t0.55958333333335-1.63625l0-0.45333333333334l-1.02,0q-1.3033333333334,0-2.0258333333334,0.39666666666668t-0.72250000000002,1.0766666666667z M32.604583333334,10.285q1.3175,0,1.955,0.60916666666668t0.65166666666668,1.7l0,1.9408333333334q0,1.5866666666667,0.1275,2.4650000000001l-0.79333333333335,0q-0.085000000000002-0.43916666666668-0.085000000000002-1.0625l-0.028333333333334,0q-0.70833333333335,1.2325-2.2808333333334,1.2325q-1.0625,0-1.6858333333334-0.52416666666668t-0.63750000000002-1.4166666666667q0-1.0908333333334,0.94208333333336-1.6433333333334t2.6279166666667-0.55250000000001l1.0483333333334,0l0-0.38250000000001q0-0.80750000000002-0.49583333333335-1.2041666666667t-1.3458333333334-0.39666666666668q-1.1333333333334,0-1.9975,0.73666666666668l-0.49583333333335-0.58083333333335q0.46750000000001-0.45333333333334,1.1545833333334-0.68708333333335t1.33875-0.23375000000001z M39.397500000001,17.17q-1.2466666666667,0-1.87-0.70125000000002t-0.62333333333335-2.1462500000001l0-3.8675000000001l0.85000000000002,0l0,3.8250000000001q0,1.0625,0.40375000000001,1.59375t1.2395833333334,0.53125000000001q1.0341666666667,0,1.6433333333334-0.70833333333335t0.62333333333335-1.9975l0-3.2441666666667l0.85000000000002,0l0,4.7741666666668q0.028333333333334,0.72250000000002,0.070833333333335,1.7708333333334l-0.85000000000002,0q-0.014166666666667-0.80750000000002-0.056666666666668-1.1475l-0.042500000000001,0q-0.28333333333334,0.60916666666668-0.89958333333335,0.96333333333336t-1.33875,0.35416666666668z M44.830416666668,8.5708333333335l0.85000000000002,0l0,1.8841666666667l1.87,0l0,0.76500000000002l-1.87,0l0,4.2783333333334q0,0.41083333333334,0.24083333333334,0.65875000000002t0.66583333333335,0.24791666666667q0.46750000000001,0,0.96333333333336-0.22666666666667l0.070833333333335,0.76500000000002q-0.63750000000002,0.22666666666667-1.1191666666667,0.22666666666667q-0.83583333333335,0-1.25375-0.46750000000001t-0.41791666666668-1.2041666666667l0-4.2783333333334l-1.4166666666667,0l0-0.76500000000002l1.4166666666667,0l0-1.8841666666667z M49.045000000001,13.7275q0,1.1758333333334,0.73666666666668,1.9266666666667t1.8558333333334,0.75083333333335q1.1616666666667,0,1.8770833333334-0.76500000000002t0.71541666666668-1.9125q0-1.1333333333334-0.70833333333335-1.8983333333334t-1.8983333333334-0.77916666666668q-1.1475,0-1.8558333333334,0.76500000000002t-0.72250000000002,1.9125z M51.637500000001,10.285q1.5016666666667,0,2.4650000000001,0.97750000000002t0.97750000000002,2.4650000000001q0,1.5158333333334-0.98458333333336,2.4720833333334t-2.4579166666667,0.97041666666669q-1.5441666666667-0.014166666666667-2.4862500000001-0.99166666666669t-0.95625000000002-2.4508333333334q0-1.5158333333334,0.97041666666669-2.4720833333334t2.4720833333334-0.97041666666669z M59.592083333335,10.285q0.72250000000002,0,1.2395833333334,0.36833333333334t0.72958333333335,1.0483333333334q0.28333333333334-0.68000000000002,0.89250000000002-1.0483333333334t1.3458333333334-0.36833333333334q2.4791666666667,0,2.4791666666667,2.7766666666667l0,3.9383333333334l-0.85000000000002,0l0-3.8958333333334q0-2.04-1.6433333333334-2.0541666666667q-0.99166666666669,0-1.4875,0.65166666666668t-0.49583333333335,1.6858333333334l0,3.6125000000001l-0.85000000000002,0l0-3.9808333333334q0-0.89250000000002-0.34000000000001-1.42375t-1.0341666666667-0.54541666666668q-1.02,0-1.6291666666667,0.71541666666668t-0.62333333333335,1.9904166666667l0,3.2441666666667l-0.85000000000002,0l0-4.7741666666668q-0.014166666666667-0.48166666666668-0.070833333333335-1.7708333333334l0.85000000000002,0q0.028333333333334,1.0483333333334,0.056666666666668,1.1475l0.042500000000001,0q0.28333333333334-0.60916666666668,0.90666666666669-0.96333333333336t1.3316666666667-0.35416666666668z M68.595000000002,15.186666666667q0,0.53833333333335,0.43208333333334,0.87833333333335t1.0695833333334,0.34000000000001q1.1475,0,1.7070833333334-0.60208333333335t0.55958333333335-1.63625l0-0.45333333333334l-1.02,0q-1.3033333333334,0-2.0258333333334,0.39666666666668t-0.72250000000002,1.0766666666667z M70.521666666668,10.285q1.3175,0,1.955,0.60916666666668t0.65166666666668,1.7l0,1.9408333333334q0,1.5866666666667,0.1275,2.4650000000001l-0.79333333333335,0q-0.085000000000002-0.43916666666668-0.085000000000002-1.0625l-0.028333333333334,0q-0.70833333333335,1.2325-2.2808333333334,1.2325q-1.0625,0-1.6858333333334-0.52416666666668t-0.63750000000002-1.4166666666667q0-1.0908333333334,0.94208333333336-1.6433333333334t2.6279166666667-0.55250000000001l1.0483333333334,0l0-0.38250000000001q0-0.80750000000002-0.49583333333335-1.2041666666667t-1.3458333333334-0.39666666666668q-1.1333333333334,0-1.9975,0.73666666666668l-0.49583333333335-0.58083333333335q0.46750000000001-0.45333333333334,1.1545833333334-0.68708333333335t1.33875-0.23375000000001z M75.373750000002,8.5708333333335l0.85000000000002,0l0,1.8841666666667l1.87,0l0,0.76500000000002l-1.87,0l0,4.2783333333334q0,0.41083333333334,0.24083333333334,0.65875000000002t0.66583333333335,0.24791666666667q0.46750000000001,0,0.96333333333336-0.22666666666667l0.070833333333335,0.76500000000002q-0.63750000000002,0.22666666666667-1.1191666666667,0.22666666666667q-0.83583333333335,0-1.25375-0.46750000000001t-0.41791666666668-1.2041666666667l0-4.2783333333334l-1.4166666666667,0l0-0.76500000000002l1.4166666666667,0l0-1.8841666666667z M79.248333333335,10.455l0.85000000000002,0l0,6.5450000000002l-0.85000000000002,0l0-6.5450000000002z M79.673333333335,7.2250000000002q0.28333333333334,0,0.46041666666668,0.18416666666667t0.17708333333334,0.45333333333334t-0.17708333333334,0.45333333333334t-0.46041666666668,0.18416666666667q-0.26916666666667,0-0.45333333333334-0.18416666666667t-0.18416666666667-0.45333333333334t0.18416666666667-0.45333333333334t0.45333333333334-0.18416666666667z M82.485416666668,13.7275q0,1.1758333333334,0.73666666666668,1.9266666666667t1.8558333333334,0.75083333333335q1.1616666666667,0,1.8770833333334-0.76500000000002t0.71541666666668-1.9125q0-1.1333333333334-0.70833333333335-1.8983333333334t-1.8983333333334-0.77916666666668q-1.1475,0-1.8558333333334,0.76500000000002t-0.72250000000002,1.9125z M85.077916666669,10.285q1.5016666666667,0,2.4650000000001,0.97750000000002t0.97750000000002,2.4650000000001q0,1.5158333333334-0.98458333333336,2.4720833333334t-2.4579166666667,0.97041666666669q-1.5441666666667-0.014166666666667-2.4862500000001-0.99166666666669t-0.95625000000002-2.4508333333334q0-1.5158333333334,0.97041666666669-2.4720833333334t2.4720833333334-0.97041666666669z M93.032500000002,10.285q1.275,0,1.8770833333334,0.68708333333335t0.61625000000001,2.1604166666667l0,3.8675000000001l-0.85000000000002,0l0-3.8250000000001q0-1.0908333333334-0.40375000000001-1.6079166666667t-1.2395833333334-0.51708333333335q-1.0341666666667,0-1.6433333333334,0.71541666666668t-0.62333333333335,1.9904166666667l0,3.2441666666667l-0.85000000000002,0l0-4.7741666666668q-0.014166666666667-0.41083333333334-0.070833333333335-1.7708333333334l0.85000000000002,0q0.028333333333334,1.1191666666667,0.056666666666668,1.1475l0.042500000000001,0q0.28333333333334-0.59500000000001,0.89958333333335-0.95625000000002t1.33875-0.36125000000001z"></path></svg>
</defs><use id="SvgjsUse1040" xlink:href="#t1493677914134" fill="#468966" x="55.0714225769043" y="121.05558395385742"></use><use id="SvgjsUse1041" xlink:href="#s1493677914134" fill="#468966" y="211.5448751449585" x="131.85458362102509"></use><use id="SvgjsUse1042" xlink:href="#a1493677914134" fill="#468966" x="128" y="34.48392724990845"></use></svg>